<?xml version="1.0" encoding="UTF-8" standalone="no"?>
<!DOCTYPE svg PUBLIC "-//W3C//DTD SVG 1.1//EN" "http://www.w3.org/Graphics/SVG/1.1/DTD/svg11.dtd">
<svg width="100%" height="100%" viewBox="0 0 417 417" version="1.1" xmlns="http://www.w3.org/2000/svg" xmlns:xlink="http://www.w3.org/1999/xlink" xml:space="preserve" xmlns:serif="http://www.serif.com/" style="fill-rule:evenodd;clip-rule:evenodd;stroke-linejoin:round;stroke-miterlimit:2;">
    <g transform="matrix(4.16667,0,0,4.16667,0,0)">
        <g transform="matrix(4.16667,0,0,4.16667,0,0)">
            <rect x="0" y="0" width="24" height="24" style="fill:rgb(0,133,192);"/>
            <path d="M24,0C24,0 0,-0.731 0,0L0,24L12.818,24L12.818,14.706L9.689,14.706L9.689,11.085L12.818,11.085L12.818,8.41C12.818,5.311 14.712,3.625 17.477,3.625C18.802,3.625 19.941,3.722 20.273,3.766L20.273,7.006L18.352,7.006C16.852,7.006 16.56,7.727 16.56,8.777L16.56,11.088L20.144,11.088L19.679,14.718L16.56,14.718L16.56,24L24,24" style="fill:white;fill-rule:nonzero;"/>
        </g>
    </g>
</svg>
