<?xml version="1.0" encoding="UTF-8" standalone="no"?><!DOCTYPE svg PUBLIC "-//W3C//DTD SVG 1.1//EN" "http://www.w3.org/Graphics/SVG/1.1/DTD/svg11.dtd"><svg width="100%" height="100%" viewBox="0 0 512 512" version="1.1" xmlns="http://www.w3.org/2000/svg" xmlns:xlink="http://www.w3.org/1999/xlink" xml:space="preserve" xmlns:serif="http://www.serif.com/" style="fill-rule:evenodd;clip-rule:evenodd;stroke-linejoin:round;stroke-miterlimit:1.41421;"><path d="M508.6,148.8c0,-45 -33.1,-81.2 -74,-81.2c-55.4,-2.6 -111.9,-3.6 -169.6,-3.6l-18,0c-57.6,0 -114.2,1 -169.6,3.6c-40.8,0 -73.9,36.4 -73.9,81.4c-2.5,35.6 -3.6,71.2 -3.5,106.8c-0.1,35.6 1,71.2 3.4,106.9c0,45 33.1,81.5 73.9,81.5c58.2,2.7 117.9,3.9 178.6,3.8c60.8,0.2 120.3,-1 178.6,-3.8c40.9,0 74,-36.5 74,-81.5c2.4,-35.7 3.5,-71.3 3.4,-107c0.2,-35.6 -0.9,-71.2 -3.3,-106.9Zm-301.6,205.1l0,-196.5l145,98.2l-145,98.3Z" style="fill:#fff;fill-rule:nonzero;"/></svg>